<svg xmlns="http://www.w3.org/2000/svg" xmlns:xlink="http://www.w3.org/1999/xlink" preserveAspectRatio="xMidYMid meet" version="1.0" viewBox="-0.0 0.0 2070.7 250.3" zoomAndPan="magnify" style="fill: rgb(245, 144, 134);" original_string_length="13512" width="317.48031496063px" height="38.324518947444474px"><g data-name="Layer 2"><g data-name="Layer 1" id="__id0_s0d011qtcq"><path d="M0,155.88a103.92,103.92,0,0,1,12.29-11.43,110.37,110.37,0,0,1,14-9.35,131.22,131.22,0,0,1,31.4-12.38,174.22,174.22,0,0,1,33.45-5,226.11,226.11,0,0,1,33.83.79c5.62.53,11.22,1.29,16.8,2.21,2.8.42,5.53,1,8.3,1.53s5.51,1.11,8.25,1.71c11,2.4,21.79,5.2,32.53,8.15,21.46,5.91,42.62,12.28,63.88,17.07,10.63,2.36,21.27,4.37,31.94,5.67a137.61,137.61,0,0,0,31.3.95A76.46,76.46,0,0,0,332.61,153a52.85,52.85,0,0,0,12.93-5.82A41.09,41.09,0,0,0,362,126.6a28.32,28.32,0,0,0,1.5-12.13l-.15-1.45-.33-1.4a18.27,18.27,0,0,0-.82-2.73l-.22-.67c-.08-.21-.18-.37-.26-.56l-.24-.54-.31-.53a14.72,14.72,0,0,0-1.39-2,20.76,20.76,0,0,0-9-6.15,23.71,23.71,0,0,0-5.57-1.3,20,20,0,0,0-5.34.18,12.82,12.82,0,0,0-4.31,1.53,9.67,9.67,0,0,0-2.89,2.6,13.48,13.48,0,0,0-2.23,8.61,22.16,22.16,0,0,0,3.41,10.33c.26.39.5.8.77,1.17l.84,1.1.89,1c.3.34.7.7,1,1a33.39,33.39,0,0,0,4.8,3.84,49.21,49.21,0,0,0,12.17,5.65c2.25.73,4.59,1.36,7,1.89s4.9.88,7.36,1.29a115.45,115.45,0,0,0,29.95.5,120.57,120.57,0,0,0,29.27-7A125.13,125.13,0,0,0,454.65,117l3.06-2.18a36.08,36.08,0,0,0,3-2.25c1.91-1.6,3.86-3.16,5.75-4.78l5.39-5.16c1.72-1.78,3.33-3.68,5-5.5.41-.47.86-.9,1.23-1.39l1.12-1.48,2.26-2.93a65.9,65.9,0,0,0,4.22-6,78.84,78.84,0,0,0,6.56-12.6,53.22,53.22,0,0,0,3.47-12.79l.19-1.58c.06-.52.07-1,.1-1.56.11-1,.05-2.06.07-3.09,0-.51-.06-1-.08-1.52s0-1-.12-1.48l-.19-1.38c0-.46-.19-.92-.27-1.39A30,30,0,0,0,491,37.42a11.84,11.84,0,0,0-.81-1.15l-.85-1.11-.91-1-.45-.51-.49-.45-1-.93-1-.8L485,31l-.52-.34-1-.69a15.65,15.65,0,0,0-17.09.26,27.19,27.19,0,0,0-7.79,7.59,32.87,32.87,0,0,0-4.84,10.5,29,29,0,0,0-.88,5.51l0,1.35,0,1.32c0,.44.08.86.11,1.3s.15,1,.22,1.45a40.94,40.94,0,0,0,3.66,11.79c3.67,7.71,9.71,15,17,21.19A108.42,108.42,0,0,0,485.52,101l1.56,1,1.62,1,3.25,1.91c1.07.67,2.19,1.24,3.31,1.81l3.35,1.74A146,146,0,0,0,526.9,119,149,149,0,0,0,587,122.19l7.42-1.33,7.33-1.73c4.87-1.36,9.73-2.8,14.51-4.64a206,206,0,0,0,28.21-13.06c9.23-5,18.28-10.74,27.26-16.73s17.89-12.34,27-18.73c18.12-12.76,36.74-25.9,57.29-36.9a229.19,229.19,0,0,1,32.29-14.41c1.4-.52,2.83-1,4.26-1.42l4.29-1.36,4.36-1.18c1.45-.39,2.89-.79,4.37-1.1,2.94-.66,5.87-1.35,8.86-1.83,1.49-.25,3-.56,4.47-.76l4.5-.6a139.15,139.15,0,0,1,36.69.16c1.53.17,3.07.47,4.6.76s3.06.56,4.59.88l4.55,1.15,2.28.59,2.25.71,4.48,1.47c1.49.53,2.94,1.15,4.41,1.73,3,1.1,5.78,2.58,8.63,4A87.84,87.84,0,0,1,912,28.5,95,95,0,0,1,925.5,42.15a93.24,93.24,0,0,1,17.54,34,80.6,80.6,0,0,1,2.83,19.47A70.47,70.47,0,0,1,935.58,134a73.43,73.43,0,0,1-12.44,15.38,84.75,84.75,0,0,1-15.39,11.58A105.78,105.78,0,0,1,890.84,169a131.07,131.07,0,0,1-35.58,7.57,139.11,139.11,0,0,1-18,.19c-1.51-.08-3-.16-4.51-.31l-2.25-.19-2.32-.27c-3.1-.39-6.15-.92-9.18-1.58a99.07,99.07,0,0,1-17.76-5.65,77.46,77.46,0,0,1-16.68-9.58,52.6,52.6,0,0,1-13.8-15.3A41.5,41.5,0,0,1,766.58,112,42.49,42.49,0,0,1,770.8,102a54,54,0,0,1,13.39-15.08,82.77,82.77,0,0,1,16-9.79,110.48,110.48,0,0,1,17-6.29c1.44-.41,2.93-.81,4.34-1.12l4.24-.91c2.82-.6,5.64-1.23,8.47-1.79l8.55-1.3,4.28-.65,4.3-.39,8.6-.78c2.87-.14,5.74-.21,8.62-.31l4.3-.14c1.44-.05,2.87,0,4.31.06l8.6.22A230.24,230.24,0,0,1,919.88,68l4.21.85,2.1.43,2.07.53,8.3,2.16c2.78.65,5.47,1.63,8.19,2.47l4.08,1.31c1.35.45,2.73.83,4,1.38l8,3.07c1.33.53,2.68,1,4,1.58l3.9,1.75c2.59,1.19,5.21,2.32,7.77,3.55l7.58,4,3.77,2,3.67,2.19,7.31,4.38,7,4.8,3.52,2.41c1.16.81,2.26,1.72,3.39,2.58a173.9,173.9,0,0,1,25.33,22.83,119.91,119.91,0,0,1,19.4,28.29,91.93,91.93,0,0,1,6,16.18,70.89,70.89,0,0,1,2.35,17.15,68.15,68.15,0,0,1-1.87,17.1,69.07,69.07,0,0,1-5.93,16A55.47,55.47,0,0,1,1048,240.7a49.11,49.11,0,0,1-13.89,9.64l-.71-1.43a50.31,50.31,0,0,0,22.28-23.12,66.26,66.26,0,0,0,5.21-15.5,65.17,65.17,0,0,0,1.28-16.31,68.63,68.63,0,0,0-2.64-16.14,88,88,0,0,0-6.12-15.23A114.94,114.94,0,0,0,1034.1,136a172.73,172.73,0,0,0-25-21.47c-1.12-.81-2.2-1.67-3.34-2.44l-3.47-2.25-6.93-4.51-7.19-4.09-3.59-2-3.7-1.84-7.41-3.67c-2.51-1.13-5.06-2.17-7.59-3.26L962,88.84c-1.26-.56-2.58-1-3.87-1.44l-7.78-2.8c-1.28-.5-2.62-.83-3.94-1.24l-4-1.18c-2.65-.76-5.26-1.65-8-2.21l-8-1.91-2-.47-2-.37-4.07-.72-4.07-.73-2-.36c-.68-.11-1.37-.18-2-.27l-8.21-1c-2.72-.4-5.48-.49-8.23-.69l-4.12-.27c-1.38-.07-2.75-.23-4.13-.21l-8.26-.07c-1.38,0-2.76-.06-4.13,0l-4.13.2c-2.75.15-5.5.25-8.25.43l-8.21.88-4.11.45-4.07.68-8.15,1.37c-2.69.58-5.37,1.24-8.05,1.85s-5.38,1.2-8,2c-10.45,3.16-20.61,7.78-29.06,14.62a43.49,43.49,0,0,0-10.53,12.11,30.64,30.64,0,0,0-4,15.25,29.54,29.54,0,0,0,4.23,15.17,40.65,40.65,0,0,0,10.88,11.73,65.65,65.65,0,0,0,14.18,7.93,87.64,87.64,0,0,0,15.63,4.78q4,.82,8.08,1.3c1.36.15,2.72.27,4.09.36s2.73.18,4.1.24a128.85,128.85,0,0,0,16.44-.37,117.69,117.69,0,0,0,32-7.16,92,92,0,0,0,14.69-7.18,71.17,71.17,0,0,0,12.9-9.92A61.49,61.49,0,0,0,923.82,127a56.72,56.72,0,0,0,8.1-31,66.55,66.55,0,0,0-2.45-16,79,79,0,0,0-15.07-28.7,78.19,78.19,0,0,0-25.17-20.41c-2.47-1.16-4.88-2.44-7.46-3.36-1.27-.49-2.52-1-3.81-1.47l-3.9-1.24-1.95-.61-2-.49-4-1c-1.34-.27-2.68-.5-4-.75s-2.68-.51-4.05-.63a123.83,123.83,0,0,0-32.75.1,154.75,154.75,0,0,0-31.93,7.72,213.8,213.8,0,0,0-30,13.57C743.92,53.16,725.85,66,707.81,78.8s-36.16,25.78-55.69,36.54a222,222,0,0,1-30.32,14.09c-5.21,2-10.58,3.62-16,5.13l-8.17,1.94-8.25,1.5a164.75,164.75,0,0,1-66.56-3.63,161.89,161.89,0,0,1-31.34-11.82l-3.72-1.94c-1.25-.64-2.48-1.28-3.68-2l-3.61-2.13-1.81-1.07-1.76-1.14a121.11,121.11,0,0,1-13.47-10.08c-8.47-7.34-15.93-16.12-20.79-26.41a56.75,56.75,0,0,1-4.94-16.27,41.1,41.1,0,0,1,1-17.06A48.06,48.06,0,0,1,446,29a42.36,42.36,0,0,1,12.38-11.8,30.71,30.71,0,0,1,33.05-.05c.61.39,1.19.81,1.79,1.22l.89.61c.29.22.56.46.84.68L496.57,21l1.54,1.5c1.07,1,1.93,2.13,2.9,3.19.44.56.86,1.15,1.29,1.72a17.93,17.93,0,0,1,1.22,1.77A44.9,44.9,0,0,1,510,45a50.43,50.43,0,0,1,.33,17,68.53,68.53,0,0,1-4.57,16.31,93.7,93.7,0,0,1-7.9,14.88A80.87,80.87,0,0,1,493,100l-2.59,3.31-1.3,1.65c-.42.56-.93,1.05-1.39,1.57-1.91,2.06-3.75,4.17-5.71,6.17l-6.12,5.76c-2.14,1.8-4.34,3.54-6.5,5.31-1.06.92-2.24,1.68-3.38,2.49l-3.44,2.4a139.55,139.55,0,0,1-29.85,15.17,132,132,0,0,1-32.63,7.51,128.49,128.49,0,0,1-33.47-1,93.57,93.57,0,0,1-16.36-3.89,61.78,61.78,0,0,1-15.22-7.4,45.74,45.74,0,0,1-6.58-5.46,35.33,35.33,0,0,1-10.28-23.14A25.51,25.51,0,0,1,323.1,94a21.89,21.89,0,0,1,6.66-5.72A24.76,24.76,0,0,1,338,85.52a33.11,33.11,0,0,1,17,2,32.09,32.09,0,0,1,13.87,10,25.2,25.2,0,0,1,4.1,7.64,26.2,26.2,0,0,1,1.16,4.16l.42,2.11c.08.72.13,1.43.2,2.15a39.57,39.57,0,0,1-2.43,16.85,51.74,51.74,0,0,1-21.41,25.71,63.65,63.65,0,0,1-15.54,6.64,86.58,86.58,0,0,1-16.58,2.89,147.92,147.92,0,0,1-33.39-1.58,324.43,324.43,0,0,1-32.72-6.44C231.13,152.24,210,145.35,188.84,139c-10.61-3.17-21.25-6.18-32-8.78-2.69-.66-5.37-1.32-8.08-1.87s-5.39-1.21-8.1-1.7c-5.42-1-10.87-1.93-16.34-2.6-21.87-2.66-44.26-2.5-65.78,2.33a128,128,0,0,0-31,11.13A104.69,104.69,0,0,0,1.15,157Z" style="fill: inherit;"/><path d="M2069.56,157a106.38,106.38,0,0,0-26.89-18.59,127.07,127.07,0,0,0-31-10.11c-21.35-4.22-43.43-3.85-64.9-.69-5.38.79-10.73,1.8-16,3-1.33.28-2.66.58-4,.92l-4,.94c-2.66.6-5.3,1.31-8,2-10.58,2.78-21.08,6-31.58,9.35-21,6.74-42,14.07-63.77,19.95a325.38,325.38,0,0,1-33.27,7.11,154.55,154.55,0,0,1-34.94,2.15c-12-.78-24.4-3.56-35.6-10.1a59.91,59.91,0,0,1-15-12.61,58.76,58.76,0,0,1-10.22-17,48.16,48.16,0,0,1-3.19-20.49c.07-.9.13-1.79.23-2.69l.49-2.67a21.75,21.75,0,0,1,.59-2.66l.81-2.61.43-1.3c.15-.44.37-.9.55-1.35l.6-1.36.68-1.3a35.58,35.58,0,0,1,3.15-4.9,41,41,0,0,1,17.65-13,42.1,42.1,0,0,1,21.72-2.63,33.85,33.85,0,0,1,11.35,3.75,31.5,31.5,0,0,1,9.64,8.15,35.2,35.2,0,0,1,7.09,22.59,41.34,41.34,0,0,1-1.8,11.06,46.2,46.2,0,0,1-4.41,10c-.48.78-.94,1.57-1.46,2.33L1753,136.5l-1.78,2.16c-.6.71-1.21,1.31-1.82,2a56.39,56.39,0,0,1-8,6.75,71.91,71.91,0,0,1-17.62,8.81c-3,1.05-6,1.93-9,2.67s-6,1.25-9,1.82a139.13,139.13,0,0,1-36.27,1.48,141.4,141.4,0,0,1-35.32-7.88,150.06,150.06,0,0,1-32.39-16.21l-3.75-2.58c-1.24-.88-2.52-1.7-3.69-2.68-2.37-1.91-4.76-3.79-7.1-5.74l-6.71-6.24c-2.15-2.16-4.19-4.46-6.28-6.69-.5-.57-1.06-1.11-1.53-1.71l-1.43-1.8-2.86-3.61a89.27,89.27,0,0,1-5.42-7.52,105.94,105.94,0,0,1-9-16.71,80.24,80.24,0,0,1-5.44-19.13,61.82,61.82,0,0,1,.33-21.07,57.05,57.05,0,0,1,8.11-20c.47-.78,1-1.52,1.55-2.26s1.08-1.49,1.65-2.21l1.81-2.12c.31-.35.6-.7.92-1l1-1c.67-.66,1.33-1.33,2-2l2.19-1.84c.37-.31.73-.62,1.12-.91l1.19-.84c.79-.55,1.58-1.11,2.4-1.64a44.28,44.28,0,0,1,23-6.72A41.79,41.79,0,0,1,1608,1.78a46,46,0,0,1,10.8,4.82,54.86,54.86,0,0,1,16.09,15.2,60.88,60.88,0,0,1,9.14,19.45,56.72,56.72,0,0,1,1.8,10.87l.11,2.8c0,.94,0,1.89,0,2.83s-.13,1.9-.2,2.85-.23,1.77-.35,2.66a69.31,69.31,0,0,1-6,19.87A84.21,84.21,0,0,1,1628.83,100a105.59,105.59,0,0,1-13.27,13.76,130.12,130.12,0,0,1-14.88,11.17l-1.94,1.25-2,1.16-3.91,2.31c-1.29.79-2.63,1.5-4,2.19l-4,2.1a174.84,174.84,0,0,1-33.8,12.76,177.25,177.25,0,0,1-71.74,4l-8.93-1.63-8.83-2.1c-5.8-1.63-11.57-3.37-17.13-5.51a234.93,234.93,0,0,1-32-14.9c-10.2-5.61-19.9-11.76-29.33-18.08s-18.57-12.84-27.56-19.29c-18-12.89-35.61-25.43-54.09-35.49a202.76,202.76,0,0,0-28.25-12.88,146.09,146.09,0,0,0-29.37-7.31,112.45,112.45,0,0,0-29.59-.33c-1.22.1-2.4.33-3.6.54l-3.58.63-3.51.84-1.75.41-1.72.53-3.43,1.06c-1.13.38-2.22.85-3.34,1.26-2.26.78-4.35,1.89-6.51,2.87-16.37,8-29.64,24-34.69,41.67a54.61,54.61,0,0,0-2.15,13.3,47.85,47.85,0,0,0,1.35,13,48.52,48.52,0,0,0,5,12.09,52.55,52.55,0,0,0,8.2,10.54c6.4,6.47,14.74,11.47,23.81,15.14a108,108,0,0,0,29.08,6.88,116.37,116.37,0,0,0,15.17.52c1.26,0,2.53-.07,3.79-.17l1.89-.11,1.81-.17q3.62-.37,7.22-1.06a78.34,78.34,0,0,0,14-4.07,55.93,55.93,0,0,0,12.26-6.61,31.83,31.83,0,0,0,8.61-8.93,20.39,20.39,0,0,0,3.15-10.57,22.1,22.1,0,0,0-2.67-11,34.74,34.74,0,0,0-8.29-9.86c-7.08-6-16.36-10.51-26-13.58-1.22-.38-2.4-.75-3.68-1.07l-3.86-1c-2.57-.63-5.14-1.3-7.73-1.91l-7.83-1.45-3.92-.73-4-.49-7.92-1c-2.66-.22-5.32-.36-8-.55l-4-.26c-1.33-.09-2.67,0-4-.07l-8-.07c-1.34,0-2.67.1-4,.14l-4,.19c-2.67.15-5.35.19-8,.54l-8,.84c-.66.08-1.33.12-2,.22l-2,.31-4,.63-4,.63-2,.31-2,.42-7.87,1.7c-2.64.49-5.2,1.31-7.79,2L1126,88.78c-1.29.37-2.61.67-3.87,1.13l-7.64,2.58c-1.27.45-2.57.81-3.81,1.33l-3.75,1.5c-2.49,1-5,2-7.48,3l-7.31,3.44-3.66,1.72-3.55,1.93-7.11,3.86-6.87,4.27-3.44,2.14c-1.14.73-2.21,1.55-3.32,2.32a174.37,174.37,0,0,0-25,20.44,111.81,111.81,0,0,0-19.41,25.38,86,86,0,0,0-6.3,14.63,67.26,67.26,0,0,0-3,15.57,63.54,63.54,0,0,0,.79,15.93,64.63,64.63,0,0,0,4.66,15.35,50.33,50.33,0,0,0,21.37,23.57l-.7,1.43a51.94,51.94,0,0,1-23.1-23.8,68.56,68.56,0,0,1-5.39-15.9,67.62,67.62,0,0,1-1.37-16.73,70.5,70.5,0,0,1,2.67-16.58,90.65,90.65,0,0,1,6.2-15.58,116.55,116.55,0,0,1,19.53-27.09,174.86,174.86,0,0,1,25.27-21.8c1.12-.81,2.21-1.69,3.37-2.46l3.49-2.29,7-4.57,7.24-4.15,3.62-2.08,3.73-1.87,7.48-3.72c2.53-1.15,5.11-2.21,7.66-3.32l3.84-1.64c1.27-.57,2.6-1,3.9-1.47l7.85-2.85c1.3-.51,2.65-.85,4-1.27l4-1.2c2.67-.77,5.31-1.68,8-2.26l8.12-1.95,2-.48,2-.38,4.11-.74a228,228,0,0,1,33.18-3.61l8.35-.08c1.39,0,2.79-.07,4.18,0l4.17.2c2.78.14,5.56.25,8.34.42l8.31.89,4.15.45,4.12.69L1235,74.5c2.72.58,5.43,1.23,8.15,1.85s5.43,1.21,8.12,2c10.7,3.23,21.12,7.93,30,15a46.17,46.17,0,0,1,11.14,12.82,33.06,33.06,0,0,1,4.36,16.51,32.05,32.05,0,0,1-4.56,16.47,43.34,43.34,0,0,1-11.54,12.5,68.26,68.26,0,0,1-14.74,8.26,89.93,89.93,0,0,1-16.1,4.94q-4.12.85-8.32,1.34c-1.4.16-2.79.29-4.19.38s-2.79.18-4.19.25a130.23,130.23,0,0,1-16.76-.35,120.87,120.87,0,0,1-32.7-7.3,94.94,94.94,0,0,1-15.13-7.39,73.32,73.32,0,0,1-13.39-10.28,63.88,63.88,0,0,1-10.55-13.23A59.36,59.36,0,0,1,1136,95.91a69.45,69.45,0,0,1,2.52-16.73,81.87,81.87,0,0,1,15.58-29.74,81,81,0,0,1,26.06-21.17c2.54-1.2,5-2.52,7.69-3.47,1.31-.51,2.6-1.06,3.93-1.53l4-1.27,2-.64,2-.5,4.09-1c1.37-.27,2.76-.51,4.14-.76s2.76-.53,4.15-.66a127.08,127.08,0,0,1,33.52.06,158.14,158.14,0,0,1,32.55,7.84A216.06,216.06,0,0,1,1308.8,40c19.63,10.58,37.82,23.45,55.87,36.27s36.1,25.67,55.43,36.29A219,219,0,0,0,1450,126.47c5.13,2,10.39,3.54,15.67,5l8,1.89,8.09,1.46a161.65,161.65,0,0,0,65.27-3.51,159.15,159.15,0,0,0,30.75-11.55l3.65-1.9c1.22-.62,2.44-1.26,3.6-2l3.55-2.08,1.77-1,1.72-1.11a117.58,117.58,0,0,0,13.13-9.8c8.24-7.13,15.44-15.61,20.07-25.4a53.83,53.83,0,0,0,4.69-15.4,38,38,0,0,0-.9-15.87,45.55,45.55,0,0,0-6.76-14.5,39.57,39.57,0,0,0-11.49-11,27.75,27.75,0,0,0-30-.08c-9,5.66-15.22,15.47-17.32,25.93a47.17,47.17,0,0,0-.31,16,65.66,65.66,0,0,0,4.35,15.61,91.94,91.94,0,0,0,7.65,14.44,80.1,80.1,0,0,0,4.76,6.68l2.52,3.23,1.27,1.62c.41.54.91,1,1.36,1.54,1.86,2,3.65,4.07,5.57,6l6,5.63c2.09,1.77,4.24,3.47,6.36,5.21,1,.9,2.19,1.64,3.3,2.44l3.37,2.36A136.62,136.62,0,0,0,1639,141.26a129.91,129.91,0,0,0,32,7.4,126,126,0,0,0,32.75-1,91.94,91.94,0,0,0,15.94-3.77,59.22,59.22,0,0,0,14.58-7.06,37.16,37.16,0,0,0,11.1-11.41,31.78,31.78,0,0,0,4.63-15.08,22.93,22.93,0,0,0-4.38-14.76,19.41,19.41,0,0,0-5.86-5,22.27,22.27,0,0,0-7.4-2.5,30.52,30.52,0,0,0-15.66,1.8,29.61,29.61,0,0,0-12.77,9.17,22.47,22.47,0,0,0-3.71,6.92,24.18,24.18,0,0,0-1.07,3.83l-.4,2-.18,2a37,37,0,0,0,2.26,15.77A49.23,49.23,0,0,0,1721.08,154a60.75,60.75,0,0,0,14.93,6.39,84.18,84.18,0,0,0,16.1,2.83,145.9,145.9,0,0,0,32.85-1.53,330.44,330.44,0,0,0,32.49-6.35c21.46-5.28,42.54-12.1,63.8-18.4,10.63-3.14,21.32-6.13,32.12-8.72,2.7-.64,5.4-1.3,8.12-1.85s5.43-1.2,8.17-1.69c5.46-1,11-1.91,16.48-2.57,22.06-2.62,44.65-2.39,66.42,2.56A130.25,130.25,0,0,1,2043.92,136a106.35,106.35,0,0,1,26.79,19.88Z" style="fill: inherit;"/></g></g></svg>